<svg width="1588" height="1588" viewBox="0 0 1588 1588" fill="none" xmlns="http://www.w3.org/2000/svg">
<rect width="1588" height="1588" fill="#949FA7"/>
<path d="M346.609 1025V561.066H464.928L555.224 804.865C559.583 817.734 565.084 834.548 571.726 855.306C578.369 875.856 584.389 895.161 589.786 913.22C595.183 895.161 601.099 875.856 607.533 855.306C614.176 834.548 619.677 817.734 624.036 804.865L712.775 561.066H831.717V1025H750.762V788.362C750.762 771.964 751.073 751.829 751.696 727.957C752.318 704.086 752.941 680.319 753.564 656.655C745.261 682.809 737.373 707.822 729.9 731.694C722.427 755.358 716.2 774.247 711.218 788.362L622.79 1025H555.535L466.485 788.362C461.711 774.87 455.587 756.914 448.114 734.496C440.849 711.87 433.169 688.103 425.073 663.193C425.696 686.027 426.215 708.757 426.63 731.382C427.253 753.801 427.564 772.794 427.564 788.362V1025H346.609ZM1076.76 1032.47C1019.26 1032.47 974.218 1018.46 941.629 990.438C909.247 962.208 893.056 923.287 893.056 873.676H973.699C974.114 901.699 983.351 923.599 1001.41 939.375C1019.68 955.15 1045 963.038 1077.38 963.038C1106.24 963.038 1129.49 957.019 1147.13 944.979C1164.77 932.732 1173.6 916.437 1173.6 896.095C1173.6 879.696 1166.95 866.411 1153.67 856.24C1140.38 845.861 1118.28 837.143 1087.35 830.085L1037.53 818.876C991.239 808.29 957.093 792.618 935.09 771.86C913.087 751.102 902.085 724.429 902.085 691.839C902.085 664.231 909.143 640.049 923.258 619.291C937.581 598.533 957.508 582.446 983.04 571.029C1008.78 559.405 1038.67 553.593 1072.71 553.593C1124.61 553.593 1165.71 566.774 1196.01 593.136C1226.53 619.499 1242.41 655.721 1243.65 701.803H1165.5C1163.84 677.309 1154.71 658.108 1138.1 644.2C1121.49 630.293 1099.59 623.339 1072.4 623.339C1046.66 623.339 1025.59 629.358 1009.19 641.398C992.796 653.437 984.597 668.902 984.597 687.791C984.597 703.36 991.032 716.022 1003.9 725.778C1016.98 735.326 1038.67 743.526 1068.98 750.376L1115.99 761.274C1164.15 771.86 1199.44 787.636 1221.86 808.601C1244.28 829.566 1255.48 857.07 1255.48 891.113C1255.48 919.966 1248.22 944.979 1233.69 966.152C1219.16 987.325 1198.5 1003.72 1171.73 1015.35C1144.95 1026.76 1113.29 1032.47 1076.76 1032.47Z" fill="white"/>
</svg>
