<svg width="84" height="15" viewBox="0 0 84 15" fill="none" xmlns="http://www.w3.org/2000/svg">
<path d="M0.0898438 14V0.904297H3.42969L5.97852 7.78613C6.10156 8.14941 6.25684 8.62402 6.44434 9.20996C6.63184 9.79004 6.80176 10.335 6.9541 10.8447C7.10645 10.335 7.27344 9.79004 7.45508 9.20996C7.64258 8.62402 7.79785 8.14941 7.9209 7.78613L10.4258 0.904297H13.7832V14H11.498V7.32031C11.498 6.85742 11.5068 6.28906 11.5244 5.61523C11.542 4.94141 11.5596 4.27051 11.5771 3.60254C11.3428 4.34082 11.1201 5.04688 10.9092 5.7207C10.6982 6.38867 10.5225 6.92188 10.3818 7.32031L7.88574 14H5.9873L3.47363 7.32031C3.33887 6.93945 3.16602 6.43262 2.95508 5.7998C2.75 5.16113 2.5332 4.49023 2.30469 3.78711C2.32227 4.43164 2.33691 5.07324 2.34863 5.71191C2.36621 6.34473 2.375 6.88086 2.375 7.32031V14H0.0898438ZM15.8574 14V4.71875H18.0723V14H15.8574ZM16.9648 3.33887C16.584 3.33887 16.2676 3.21875 16.0156 2.97852C15.7637 2.73242 15.6377 2.43066 15.6377 2.07324C15.6377 1.71582 15.7637 1.41699 16.0156 1.17676C16.2676 0.936523 16.584 0.816406 16.9648 0.816406C17.3398 0.816406 17.6533 0.936523 17.9053 1.17676C18.1572 1.41699 18.2832 1.71582 18.2832 2.07324C18.2832 2.43066 18.1572 2.73242 17.9053 2.97852C17.6533 3.21875 17.3398 3.33887 16.9648 3.33887ZM20.041 14V4.71875H22.1768V6.25684H22.2031C22.373 5.72949 22.6396 5.32812 23.0029 5.05273C23.3721 4.77148 23.8555 4.63086 24.4531 4.63086C24.6055 4.63086 24.7402 4.63672 24.8574 4.64844C24.9805 4.6543 25.0859 4.66016 25.1738 4.66602V6.63477C25.0918 6.62305 24.9512 6.6084 24.752 6.59082C24.5527 6.57324 24.3447 6.56445 24.1279 6.56445C23.6006 6.56445 23.1553 6.74609 22.792 7.10938C22.4346 7.47266 22.2559 8.01758 22.2559 8.74414V14H20.041ZM26.5625 14V4.71875H28.6982V6.25684H28.7246C28.8945 5.72949 29.1611 5.32812 29.5244 5.05273C29.8936 4.77148 30.377 4.63086 30.9746 4.63086C31.127 4.63086 31.2617 4.63672 31.3789 4.64844C31.502 4.6543 31.6074 4.66016 31.6953 4.66602V6.63477C31.6133 6.62305 31.4727 6.6084 31.2734 6.59082C31.0742 6.57324 30.8662 6.56445 30.6494 6.56445C30.1221 6.56445 29.6768 6.74609 29.3135 7.10938C28.9561 7.47266 28.7773 8.01758 28.7773 8.74414V14H26.5625ZM37.0039 14.2109C36.0898 14.2109 35.29 14.0088 34.6045 13.6045C33.9189 13.1943 33.3828 12.626 32.9961 11.8994C32.6152 11.1729 32.4248 10.3291 32.4248 9.36816C32.4248 8.40723 32.6152 7.56348 32.9961 6.83691C33.3828 6.10449 33.9189 5.5332 34.6045 5.12305C35.29 4.71289 36.0898 4.50781 37.0039 4.50781C37.9121 4.50781 38.709 4.71289 39.3945 5.12305C40.0859 5.5332 40.6221 6.10449 41.0029 6.83691C41.3896 7.56348 41.583 8.40723 41.583 9.36816C41.583 10.3291 41.3896 11.1729 41.0029 11.8994C40.6221 12.626 40.0859 13.1943 39.3945 13.6045C38.709 14.0088 37.9121 14.2109 37.0039 14.2109ZM37.0039 12.3564C37.7129 12.3564 38.2783 12.0898 38.7002 11.5566C39.1221 11.0234 39.333 10.2939 39.333 9.36816C39.333 8.44238 39.1221 7.70996 38.7002 7.1709C38.2783 6.63184 37.7129 6.3623 37.0039 6.3623C36.2891 6.3623 35.7207 6.63184 35.2988 7.1709C34.877 7.7041 34.666 8.43652 34.666 9.36816C34.666 10.2939 34.877 11.0234 35.2988 11.5566C35.7207 12.0898 36.2891 12.3564 37.0039 12.3564ZM43.1211 14V4.71875H45.2568V6.25684H45.2832C45.4531 5.72949 45.7197 5.32812 46.083 5.05273C46.4521 4.77148 46.9355 4.63086 47.5332 4.63086C47.6855 4.63086 47.8203 4.63672 47.9375 4.64844C48.0605 4.6543 48.166 4.66016 48.2539 4.66602V6.63477C48.1719 6.62305 48.0312 6.6084 47.832 6.59082C47.6328 6.57324 47.4248 6.56445 47.208 6.56445C46.6807 6.56445 46.2354 6.74609 45.8721 7.10938C45.5146 7.47266 45.3359 8.01758 45.3359 8.74414V14H43.1211ZM54.3799 14.2109C52.7568 14.2109 51.4854 13.8154 50.5654 13.0244C49.6514 12.2275 49.1943 11.1289 49.1943 9.72852H51.4707C51.4824 10.5195 51.7432 11.1377 52.2529 11.583C52.7686 12.0283 53.4834 12.251 54.3975 12.251C55.2119 12.251 55.8682 12.0811 56.3662 11.7412C56.8643 11.3955 57.1133 10.9355 57.1133 10.3613C57.1133 9.89844 56.9258 9.52344 56.5508 9.23633C56.1758 8.94336 55.5518 8.69727 54.6787 8.49805L53.2725 8.18164C51.9658 7.88281 51.002 7.44043 50.3809 6.85449C49.7598 6.26855 49.4492 5.51562 49.4492 4.5957C49.4492 3.81641 49.6484 3.13379 50.0469 2.54785C50.4512 1.96191 51.0137 1.50781 51.7344 1.18555C52.4609 0.857422 53.3047 0.693359 54.2656 0.693359C55.7305 0.693359 56.8906 1.06543 57.7461 1.80957C58.6074 2.55371 59.0557 3.57617 59.0908 4.87695H56.8848C56.8379 4.18555 56.5801 3.64355 56.1113 3.25098C55.6426 2.8584 55.0244 2.66211 54.2568 2.66211C53.5303 2.66211 52.9355 2.83203 52.4727 3.17188C52.0098 3.51172 51.7783 3.94824 51.7783 4.48145C51.7783 4.9209 51.96 5.27832 52.3232 5.55371C52.6924 5.82324 53.3047 6.05469 54.1602 6.24805L55.4873 6.55566C56.8467 6.85449 57.8428 7.2998 58.4756 7.8916C59.1084 8.4834 59.4248 9.25977 59.4248 10.2207C59.4248 11.0352 59.2197 11.7412 58.8096 12.3389C58.3994 12.9365 57.8164 13.3994 57.0605 13.7275C56.3047 14.0498 55.4111 14.2109 54.3799 14.2109ZM65.1992 14.2109C64.2852 14.2109 63.4854 14.0088 62.7998 13.6045C62.1143 13.1943 61.5781 12.626 61.1914 11.8994C60.8105 11.1729 60.6201 10.3291 60.6201 9.36816C60.6201 8.40723 60.8105 7.56348 61.1914 6.83691C61.5781 6.10449 62.1143 5.5332 62.7998 5.12305C63.4854 4.71289 64.2852 4.50781 65.1992 4.50781C66.1074 4.50781 66.9043 4.71289 67.5898 5.12305C68.2812 5.5332 68.8174 6.10449 69.1982 6.83691C69.585 7.56348 69.7783 8.40723 69.7783 9.36816C69.7783 10.3291 69.585 11.1729 69.1982 11.8994C68.8174 12.626 68.2812 13.1943 67.5898 13.6045C66.9043 14.0088 66.1074 14.2109 65.1992 14.2109ZM65.1992 12.3564C65.9082 12.3564 66.4736 12.0898 66.8955 11.5566C67.3174 11.0234 67.5283 10.2939 67.5283 9.36816C67.5283 8.44238 67.3174 7.70996 66.8955 7.1709C66.4736 6.63184 65.9082 6.3623 65.1992 6.3623C64.4844 6.3623 63.916 6.63184 63.4941 7.1709C63.0723 7.7041 62.8613 8.43652 62.8613 9.36816C62.8613 10.2939 63.0723 11.0234 63.4941 11.5566C63.916 12.0898 64.4844 12.3564 65.1992 12.3564ZM74.6211 14.1846C73.6484 14.1846 72.8545 13.8711 72.2393 13.2441C71.624 12.6172 71.3164 11.709 71.3164 10.5195V4.71875H73.5312V10.168C73.5312 10.8477 73.6953 11.3633 74.0234 11.7148C74.3516 12.0664 74.8115 12.2422 75.4033 12.2422C75.9893 12.2422 76.4727 12.0605 76.8535 11.6973C77.2402 11.334 77.4336 10.7568 77.4336 9.96582V4.71875H79.6572V14H77.4775V12.5762C76.8271 13.6484 75.875 14.1846 74.6211 14.1846ZM83.8496 0.904297V14H81.6348V0.904297H83.8496Z" fill="black"/>
</svg>
