<svg width="117" height="20" viewBox="0 0 117 20" fill="none" xmlns="http://www.w3.org/2000/svg">
<path d="M0.513672 19V0.811523H5.15234L8.69238 10.3696C8.86328 10.8742 9.07894 11.5334 9.33936 12.3472C9.59977 13.1528 9.83577 13.9097 10.0474 14.6177C10.259 13.9097 10.4909 13.1528 10.7432 12.3472C11.0036 11.5334 11.2192 10.8742 11.3901 10.3696L14.8691 0.811523H19.5322V19H16.3584V9.72266C16.3584 9.07975 16.3706 8.29036 16.395 7.35449C16.4194 6.41862 16.4438 5.48682 16.4683 4.55908C16.1427 5.58447 15.8335 6.5651 15.5405 7.50098C15.2476 8.42871 15.0034 9.16927 14.8081 9.72266L11.3413 19H8.70459L5.21338 9.72266C5.0262 9.19368 4.78613 8.48975 4.49316 7.61084C4.20833 6.7238 3.90723 5.79199 3.58984 4.81543C3.61426 5.71061 3.6346 6.60173 3.65088 7.48877C3.67529 8.36768 3.6875 9.1123 3.6875 9.72266V19H0.513672ZM22.4131 19V6.10938H25.4893V19H22.4131ZM23.9512 4.19287C23.4222 4.19287 22.9827 4.02604 22.6328 3.69238C22.2829 3.35059 22.1079 2.93148 22.1079 2.43506C22.1079 1.93864 22.2829 1.5236 22.6328 1.18994C22.9827 0.856283 23.4222 0.689453 23.9512 0.689453C24.472 0.689453 24.9074 0.856283 25.2573 1.18994C25.6073 1.5236 25.7822 1.93864 25.7822 2.43506C25.7822 2.93148 25.6073 3.35059 25.2573 3.69238C24.9074 4.02604 24.472 4.19287 23.9512 4.19287ZM28.2236 19V6.10938H31.1899V8.24561H31.2266C31.4626 7.51318 31.8328 6.95573 32.3374 6.57324C32.8501 6.18262 33.5215 5.9873 34.3516 5.9873C34.5632 5.9873 34.7503 5.99544 34.9131 6.01172C35.084 6.01986 35.2305 6.02799 35.3525 6.03613V8.77051C35.2386 8.75423 35.0433 8.73389 34.7666 8.70947C34.4899 8.68506 34.201 8.67285 33.8999 8.67285C33.1675 8.67285 32.549 8.92513 32.0444 9.42969C31.548 9.93424 31.2998 10.6911 31.2998 11.7002V19H28.2236ZM37.2812 19V6.10938H40.2476V8.24561H40.2842C40.5202 7.51318 40.8905 6.95573 41.395 6.57324C41.9077 6.18262 42.5791 5.9873 43.4092 5.9873C43.6208 5.9873 43.8079 5.99544 43.9707 6.01172C44.1416 6.01986 44.2881 6.02799 44.4102 6.03613V8.77051C44.2962 8.75423 44.1009 8.73389 43.8242 8.70947C43.5475 8.68506 43.2586 8.67285 42.9575 8.67285C42.2251 8.67285 41.6066 8.92513 41.1021 9.42969C40.6056 9.93424 40.3574 10.6911 40.3574 11.7002V19H37.2812ZM51.7832 19.293C50.5137 19.293 49.4028 19.0122 48.4507 18.4507C47.4985 17.881 46.7539 17.0916 46.2168 16.0825C45.6878 15.0734 45.4233 13.9015 45.4233 12.5669C45.4233 11.2323 45.6878 10.0604 46.2168 9.05127C46.7539 8.03402 47.4985 7.24056 48.4507 6.6709C49.4028 6.10124 50.5137 5.81641 51.7832 5.81641C53.0446 5.81641 54.1514 6.10124 55.1035 6.6709C56.0638 7.24056 56.8084 8.03402 57.3374 9.05127C57.8745 10.0604 58.1431 11.2323 58.1431 12.5669C58.1431 13.9015 57.8745 15.0734 57.3374 16.0825C56.8084 17.0916 56.0638 17.881 55.1035 18.4507C54.1514 19.0122 53.0446 19.293 51.7832 19.293ZM51.7832 16.7173C52.7679 16.7173 53.5532 16.347 54.1392 15.6064C54.7251 14.8659 55.0181 13.8527 55.0181 12.5669C55.0181 11.2811 54.7251 10.2638 54.1392 9.51514C53.5532 8.76644 52.7679 8.39209 51.7832 8.39209C50.7904 8.39209 50.001 8.76644 49.415 9.51514C48.8291 10.2557 48.5361 11.2729 48.5361 12.5669C48.5361 13.8527 48.8291 14.8659 49.415 15.6064C50.001 16.347 50.7904 16.7173 51.7832 16.7173ZM60.2793 19V6.10938H63.2456V8.24561H63.2822C63.5182 7.51318 63.8885 6.95573 64.3931 6.57324C64.9058 6.18262 65.5771 5.9873 66.4072 5.9873C66.6188 5.9873 66.806 5.99544 66.9688 6.01172C67.1396 6.01986 67.2861 6.02799 67.4082 6.03613V8.77051C67.2943 8.75423 67.099 8.73389 66.8223 8.70947C66.5456 8.68506 66.2567 8.67285 65.9556 8.67285C65.2231 8.67285 64.6047 8.92513 64.1001 9.42969C63.6037 9.93424 63.3555 10.6911 63.3555 11.7002V19H60.2793ZM75.9165 19.293C73.6623 19.293 71.8963 18.7437 70.6187 17.645C69.3491 16.5382 68.7144 15.0124 68.7144 13.0674H71.876C71.8923 14.166 72.2544 15.0246 72.9624 15.6431C73.6785 16.2616 74.6714 16.5708 75.9409 16.5708C77.0721 16.5708 77.9836 16.3348 78.6753 15.8628C79.367 15.3826 79.7129 14.7438 79.7129 13.9463C79.7129 13.3034 79.4525 12.7826 78.9316 12.3838C78.4108 11.9769 77.5441 11.6351 76.3315 11.3584L74.3784 10.9189C72.5636 10.5039 71.2249 9.88949 70.3623 9.07568C69.4997 8.26188 69.0684 7.21615 69.0684 5.93848C69.0684 4.85612 69.3451 3.90804 69.8984 3.09424C70.46 2.28044 71.2412 1.64974 72.2422 1.20215C73.2513 0.746419 74.4232 0.518555 75.7578 0.518555C77.7923 0.518555 79.4036 1.03532 80.5918 2.06885C81.7881 3.10238 82.4106 4.52246 82.4595 6.3291H79.3955C79.3304 5.36882 78.9723 4.61605 78.3213 4.0708C77.6702 3.52555 76.8117 3.25293 75.7456 3.25293C74.7365 3.25293 73.9105 3.48893 73.2676 3.96094C72.6247 4.43294 72.3032 5.03923 72.3032 5.77979C72.3032 6.39014 72.5555 6.88656 73.0601 7.26904C73.5728 7.64339 74.4232 7.96484 75.6113 8.2334L77.4546 8.66064C79.3426 9.07568 80.7261 9.69417 81.605 10.5161C82.4839 11.3381 82.9233 12.4163 82.9233 13.751C82.9233 14.8822 82.6385 15.8628 82.0688 16.6929C81.4992 17.5229 80.6895 18.1659 79.6396 18.6216C78.5898 19.0692 77.3488 19.293 75.9165 19.293ZM90.9434 19.293C89.6738 19.293 88.563 19.0122 87.6108 18.4507C86.6587 17.881 85.9141 17.0916 85.377 16.0825C84.848 15.0734 84.5835 13.9015 84.5835 12.5669C84.5835 11.2323 84.848 10.0604 85.377 9.05127C85.9141 8.03402 86.6587 7.24056 87.6108 6.6709C88.563 6.10124 89.6738 5.81641 90.9434 5.81641C92.2048 5.81641 93.3115 6.10124 94.2637 6.6709C95.224 7.24056 95.9686 8.03402 96.4976 9.05127C97.0347 10.0604 97.3032 11.2323 97.3032 12.5669C97.3032 13.9015 97.0347 15.0734 96.4976 16.0825C95.9686 17.0916 95.224 17.881 94.2637 18.4507C93.3115 19.0122 92.2048 19.293 90.9434 19.293ZM90.9434 16.7173C91.9281 16.7173 92.7134 16.347 93.2993 15.6064C93.8853 14.8659 94.1782 13.8527 94.1782 12.5669C94.1782 11.2811 93.8853 10.2638 93.2993 9.51514C92.7134 8.76644 91.9281 8.39209 90.9434 8.39209C89.9505 8.39209 89.1611 8.76644 88.5752 9.51514C87.9893 10.2557 87.6963 11.2729 87.6963 12.5669C87.6963 13.8527 87.9893 14.8659 88.5752 15.6064C89.1611 16.347 89.9505 16.7173 90.9434 16.7173ZM104.029 19.2563C102.678 19.2563 101.576 18.821 100.721 17.9502C99.8667 17.0794 99.4395 15.818 99.4395 14.166V6.10938H102.516V13.6777C102.516 14.6217 102.743 15.3379 103.199 15.8262C103.655 16.3145 104.294 16.5586 105.116 16.5586C105.93 16.5586 106.601 16.3063 107.13 15.8018C107.667 15.2972 107.936 14.4956 107.936 13.397V6.10938H111.024V19H107.997V17.0225C107.093 18.5117 105.771 19.2563 104.029 19.2563ZM116.847 0.811523V19H113.771V0.811523H116.847Z" fill="black"/>
</svg>
