<svg width="193" height="186" viewBox="0 0 193 186" fill="none" xmlns="http://www.w3.org/2000/svg">
<rect x="0.5" y="0.5" width="192" height="185" rx="4.5" fill="white"/>
<rect x="0.5" y="0.5" width="192" height="185" rx="4.5" stroke="black"/>
<rect x="23.5" y="20.5" width="145" height="145" fill="#BFBFBF" stroke="#BFBFBF"/>
<rect x="45" y="126" width="103" height="19" rx="9.5" fill="white"/>
<path d="M83.6289 130.997V131.856H79.7617V139H78.7949V130.997H83.6289ZM85.627 139.129C85.1042 139.129 84.644 139.004 84.2466 138.753C83.8527 138.499 83.5448 138.15 83.3228 137.706C83.1043 137.262 82.9951 136.751 82.9951 136.175C82.9951 135.595 83.1043 135.081 83.3228 134.633C83.5448 134.186 83.8527 133.835 84.2466 133.581C84.644 133.326 85.1042 133.199 85.627 133.199C86.1533 133.199 86.6134 133.326 87.0073 133.581C87.4012 133.835 87.7074 134.186 87.9258 134.633C88.1478 135.081 88.2588 135.595 88.2588 136.175C88.2588 136.751 88.1478 137.262 87.9258 137.706C87.7074 138.15 87.4012 138.499 87.0073 138.753C86.6134 139.004 86.1533 139.129 85.627 139.129ZM85.627 138.302C86.1641 138.302 86.583 138.108 86.8838 137.722C87.1846 137.331 87.335 136.816 87.335 136.175C87.335 135.527 87.1828 135.007 86.8784 134.617C86.5776 134.223 86.1605 134.026 85.627 134.026C85.0934 134.026 84.6745 134.222 84.3701 134.612C84.0693 135.002 83.9189 135.523 83.9189 136.175C83.9189 136.819 84.0693 137.335 84.3701 137.722C84.6709 138.108 85.0898 138.302 85.627 138.302ZM90.708 139V134.155H88.7261V133.328H93.5923V134.155H91.6211V139H90.708ZM96.584 139.129C96.0612 139.129 95.6011 139.004 95.2036 138.753C94.8097 138.499 94.5018 138.15 94.2798 137.706C94.0614 137.262 93.9521 136.751 93.9521 136.175C93.9521 135.595 94.0614 135.081 94.2798 134.633C94.5018 134.186 94.8097 133.835 95.2036 133.581C95.6011 133.326 96.0612 133.199 96.584 133.199C97.1104 133.199 97.5705 133.326 97.9644 133.581C98.3582 133.835 98.6644 134.186 98.8828 134.633C99.1048 135.081 99.2158 135.595 99.2158 136.175C99.2158 136.751 99.1048 137.262 98.8828 137.706C98.6644 138.15 98.3582 138.499 97.9644 138.753C97.5705 139.004 97.1104 139.129 96.584 139.129ZM96.584 138.302C97.1211 138.302 97.54 138.108 97.8408 137.722C98.1416 137.331 98.292 136.816 98.292 136.175C98.292 135.527 98.1398 135.007 97.8354 134.617C97.5347 134.223 97.1175 134.026 96.584 134.026C96.0505 134.026 95.6315 134.222 95.3271 134.612C95.0264 135.002 94.876 135.523 94.876 136.175C94.876 136.819 95.0264 137.335 95.3271 137.722C95.6279 138.108 96.0469 138.302 96.584 138.302ZM100.279 139V133.328H102.643C103.287 133.328 103.799 133.459 104.179 133.72C104.558 133.982 104.748 134.354 104.748 134.837C104.748 135.174 104.655 135.439 104.469 135.632C104.283 135.822 104.035 135.951 103.728 136.019C103.939 136.051 104.139 136.121 104.329 136.229C104.519 136.332 104.673 136.481 104.791 136.674C104.913 136.864 104.974 137.104 104.974 137.394C104.974 137.87 104.8 138.257 104.453 138.554C104.105 138.851 103.627 139 103.019 139H100.279ZM101.149 138.151H103.019C103.344 138.151 103.593 138.083 103.765 137.947C103.941 137.808 104.028 137.612 104.028 137.362C104.028 137.079 103.941 136.862 103.765 136.712C103.593 136.558 103.344 136.481 103.019 136.481H101.149V138.151ZM101.149 135.697H102.686C103.051 135.697 103.332 135.629 103.529 135.493C103.726 135.353 103.824 135.156 103.824 134.902C103.824 134.669 103.722 134.49 103.518 134.365C103.314 134.239 103.022 134.177 102.643 134.177H101.149V135.697ZM108.39 139.129C107.867 139.129 107.407 139.004 107.009 138.753C106.615 138.499 106.307 138.15 106.085 137.706C105.867 137.262 105.758 136.751 105.758 136.175C105.758 135.595 105.867 135.081 106.085 134.633C106.307 134.186 106.615 133.835 107.009 133.581C107.407 133.326 107.867 133.199 108.39 133.199C108.916 133.199 109.376 133.326 109.77 133.581C110.164 133.835 110.47 134.186 110.688 134.633C110.91 135.081 111.021 135.595 111.021 136.175C111.021 136.751 110.91 137.262 110.688 137.706C110.47 138.15 110.164 138.499 109.77 138.753C109.376 139.004 108.916 139.129 108.39 139.129ZM108.39 138.302C108.927 138.302 109.346 138.108 109.646 137.722C109.947 137.331 110.098 136.816 110.098 136.175C110.098 135.527 109.945 135.007 109.641 134.617C109.34 134.223 108.923 134.026 108.39 134.026C107.856 134.026 107.437 134.222 107.133 134.612C106.832 135.002 106.682 135.523 106.682 136.175C106.682 136.819 106.832 137.335 107.133 137.722C107.434 138.108 107.853 138.302 108.39 138.302ZM112.187 136.852L112.117 130.997H113.116L113.046 136.852H112.187ZM112.617 139.091C112.431 139.091 112.271 139.027 112.139 138.898C112.01 138.765 111.945 138.606 111.945 138.42C111.945 138.23 112.01 138.071 112.139 137.942C112.271 137.813 112.431 137.749 112.617 137.749C112.806 137.749 112.966 137.813 113.095 137.942C113.224 138.071 113.288 138.23 113.288 138.42C113.288 138.606 113.224 138.765 113.095 138.898C112.966 139.027 112.806 139.091 112.617 139.091Z" fill="black"/>
</svg>
