<svg width="193" height="186" viewBox="0 0 193 186" fill="none" xmlns="http://www.w3.org/2000/svg">
<rect x="0.5" y="0.5" width="192" height="185" rx="4.5" fill="white"/>
<rect x="0.5" y="0.5" width="192" height="185" rx="4.5" stroke="black"/>
<rect x="23.5" y="20.5" width="145" height="145" fill="#BFBFBF" stroke="#BFBFBF"/>
<rect x="55" y="126" width="88" height="19" rx="9.5" fill="white"/>
<path d="M80.7949 139V130.997H83.6846C84.4867 130.997 85.1169 131.189 85.5752 131.572C86.0335 131.955 86.2627 132.472 86.2627 133.124C86.2627 133.582 86.1481 133.951 85.9189 134.23C85.6898 134.51 85.3711 134.717 84.9629 134.854V134.864C85.4176 134.939 85.8026 135.131 86.1177 135.439C86.4328 135.743 86.5903 136.182 86.5903 136.755C86.5903 137.439 86.354 137.985 85.8813 138.393C85.4087 138.798 84.6908 139 83.7275 139H80.7949ZM81.7617 138.141H83.7275C84.3327 138.141 84.7964 138.028 85.1187 137.802C85.4445 137.573 85.6074 137.236 85.6074 136.792C85.6074 136.348 85.4499 135.999 85.1348 135.745C84.8197 135.487 84.3685 135.358 83.7812 135.358H81.7617V138.141ZM81.7617 134.51H83.7222C84.2199 134.51 84.6084 134.392 84.8877 134.155C85.167 133.915 85.3066 133.591 85.3066 133.183C85.3066 132.775 85.167 132.453 84.8877 132.216C84.6084 131.976 84.2199 131.856 83.7222 131.856H81.7617V134.51ZM92.418 133.328V139H91.5049V134.188H88.6152V139H87.7021V133.328H92.418ZM96.1133 139.129C95.5583 139.129 95.0838 139.002 94.6899 138.748C94.2996 138.493 94.0007 138.144 93.793 137.7C93.5853 137.253 93.4814 136.744 93.4814 136.175C93.4814 135.598 93.5907 135.086 93.8091 134.639C94.0275 134.191 94.3301 133.84 94.7168 133.586C95.1035 133.328 95.5475 133.199 96.0488 133.199C96.5752 133.199 97.0317 133.325 97.4185 133.575C97.8052 133.826 98.1024 134.175 98.3101 134.623C98.5213 135.07 98.627 135.588 98.627 136.175V136.427H94.3838C94.4053 136.982 94.5646 137.433 94.8618 137.781C95.159 138.128 95.5762 138.302 96.1133 138.302C96.5179 138.302 96.8473 138.209 97.1016 138.022C97.3594 137.836 97.5312 137.596 97.6172 137.303H98.5303C98.4587 137.664 98.3101 137.983 98.0845 138.259C97.8589 138.531 97.576 138.744 97.2358 138.898C96.8993 139.052 96.5251 139.129 96.1133 139.129ZM94.3945 135.643H97.7139C97.6637 135.145 97.4901 134.75 97.1929 134.456C96.8957 134.162 96.5143 134.016 96.0488 134.016C95.5833 134.016 95.2038 134.162 94.9102 134.456C94.6165 134.75 94.4447 135.145 94.3945 135.643ZM99.6689 141.245V133.328H100.561V134.166H100.571C100.754 133.847 101.006 133.611 101.329 133.457C101.651 133.299 101.996 133.221 102.365 133.221C102.859 133.221 103.291 133.344 103.66 133.591C104.028 133.838 104.315 134.184 104.519 134.628C104.723 135.068 104.825 135.58 104.825 136.164C104.825 136.744 104.723 137.256 104.519 137.7C104.315 138.141 104.028 138.486 103.66 138.737C103.291 138.984 102.859 139.107 102.365 139.107C101.996 139.107 101.66 139.029 101.355 138.871C101.051 138.71 100.797 138.466 100.593 138.141H100.582V141.245H99.6689ZM102.226 138.286C102.716 138.286 103.117 138.107 103.429 137.749C103.744 137.387 103.901 136.859 103.901 136.164C103.901 135.469 103.744 134.941 103.429 134.58C103.117 134.218 102.716 134.037 102.226 134.037C101.699 134.037 101.28 134.232 100.969 134.623C100.661 135.009 100.507 135.523 100.507 136.164C100.507 136.805 100.661 137.319 100.969 137.706C101.28 138.092 101.699 138.286 102.226 138.286ZM108.23 139.129C107.675 139.129 107.201 139.002 106.807 138.748C106.417 138.493 106.118 138.144 105.91 137.7C105.702 137.253 105.599 136.744 105.599 136.175C105.599 135.598 105.708 135.086 105.926 134.639C106.145 134.191 106.447 133.84 106.834 133.586C107.221 133.328 107.665 133.199 108.166 133.199C108.692 133.199 109.149 133.325 109.536 133.575C109.922 133.826 110.22 134.175 110.427 134.623C110.639 135.07 110.744 135.588 110.744 136.175V136.427H106.501C106.522 136.982 106.682 137.433 106.979 137.781C107.276 138.128 107.693 138.302 108.23 138.302C108.635 138.302 108.965 138.209 109.219 138.022C109.477 137.836 109.648 137.596 109.734 137.303H110.647C110.576 137.664 110.427 137.983 110.202 138.259C109.976 138.531 109.693 138.744 109.353 138.898C109.016 139.052 108.642 139.129 108.23 139.129ZM106.512 135.643H109.831C109.781 135.145 109.607 134.75 109.31 134.456C109.013 134.162 108.632 134.016 108.166 134.016C107.701 134.016 107.321 134.162 107.027 134.456C106.734 134.75 106.562 135.145 106.512 135.643ZM111.233 140.719V138.141H111.727C111.892 137.969 112.028 137.784 112.135 137.587C112.243 137.39 112.33 137.133 112.398 136.814C112.47 136.495 112.529 136.071 112.576 135.541L112.78 133.328H116.593V138.141H117.506V140.719H116.593V139H112.146V140.719H111.233ZM112.78 138.141H115.68V134.188H113.612L113.478 135.541C113.421 136.125 113.342 136.635 113.242 137.072C113.145 137.509 112.991 137.865 112.78 138.141Z" fill="black"/>
<rect x="53" y="48" width="86" height="7" fill="white"/>
<rect x="53" y="60" width="76" height="3" fill="white"/>
<rect x="53" y="65" width="67" height="3" fill="white"/>
<rect x="53" y="70" width="59" height="3" fill="white"/>
<rect x="53" y="75" width="76" height="3" fill="white"/>
<rect x="53" y="80" width="67" height="3" fill="white"/>
</svg>
