<svg width="193" height="186" viewBox="0 0 193 186" fill="none" xmlns="http://www.w3.org/2000/svg">
<rect x="0.5" y="0.5" width="192" height="185" rx="4.5" fill="white"/>
<rect x="0.5" y="0.5" width="192" height="185" rx="4.5" stroke="black"/>
<rect x="23.5" y="20.5" width="145" height="145" fill="#BFBFBF" stroke="#BFBFBF"/>
<rect x="45" y="44" width="103" height="19" rx="9.5" fill="white"/>
<path d="M75.7949 57V48.9971H78.6631C79.4974 48.9971 80.158 49.2155 80.645 49.6523C81.1356 50.0856 81.3809 50.6764 81.3809 51.4248C81.3809 51.9225 81.2663 52.354 81.0371 52.7192C80.8115 53.0809 80.491 53.362 80.0757 53.5625C79.6639 53.7594 79.1787 53.8579 78.6201 53.8579H76.7617V57H75.7949ZM76.7617 52.9985H78.6309C79.1859 52.9985 79.6227 52.8589 79.9414 52.5796C80.2637 52.2967 80.4248 51.9118 80.4248 51.4248C80.4248 50.9378 80.2637 50.5547 79.9414 50.2754C79.6227 49.9961 79.1859 49.8564 78.6309 49.8564H76.7617V52.9985ZM84.4316 57.1289C83.8766 57.1289 83.4022 57.0018 83.0083 56.7476C82.618 56.4933 82.319 56.1442 82.1113 55.7002C81.9036 55.2526 81.7998 54.7441 81.7998 54.1748C81.7998 53.5983 81.909 53.0863 82.1274 52.6387C82.3459 52.1911 82.6484 51.8402 83.0352 51.5859C83.4219 51.3281 83.8659 51.1992 84.3672 51.1992C84.8936 51.1992 85.3501 51.3245 85.7368 51.5752C86.1235 51.8258 86.4207 52.175 86.6284 52.6226C86.8397 53.0701 86.9453 53.5876 86.9453 54.1748V54.4272H82.7021C82.7236 54.9823 82.883 55.4334 83.1802 55.7808C83.4774 56.1281 83.8945 56.3018 84.4316 56.3018C84.8363 56.3018 85.1657 56.2087 85.4199 56.0225C85.6777 55.8363 85.8496 55.5964 85.9355 55.3027H86.8486C86.777 55.6644 86.6284 55.9831 86.4028 56.2588C86.1772 56.5309 85.8944 56.744 85.5542 56.8979C85.2176 57.0519 84.8434 57.1289 84.4316 57.1289ZM82.7129 53.6431H86.0322C85.9821 53.1453 85.8084 52.7497 85.5112 52.4561C85.214 52.1624 84.8327 52.0156 84.3672 52.0156C83.9017 52.0156 83.5221 52.1624 83.2285 52.4561C82.9349 52.7497 82.763 53.1453 82.7129 53.6431ZM87.2246 57L89.6631 54.1211L87.2568 51.3281H88.3418L90.3506 53.7344H90.8447V51.3281H91.7578V53.7344H92.2412L94.2393 51.3281H95.335L92.9395 54.1211L95.3672 57H94.2607L92.2305 54.5938H91.7578V57H90.8447V54.5938H90.3721L88.3311 57H87.2246ZM100.953 57H100.04V52.7729H100.024L97.1182 57H96.2051V51.3281H97.1182V55.5605H97.1343L100.04 51.3281H100.953V57ZM102.307 57V51.3281H103.676L105.148 54.6797C105.245 54.9017 105.332 55.1112 105.411 55.3081C105.49 55.5015 105.567 55.6948 105.642 55.8882C105.721 55.6948 105.798 55.5015 105.873 55.3081C105.952 55.1112 106.04 54.9017 106.136 54.6797L107.597 51.3281H108.967V57H108.054V54.1318C108.054 53.7272 108.056 53.3924 108.059 53.1274C108.063 52.8625 108.066 52.5975 108.07 52.3325C107.955 52.6082 107.839 52.8893 107.721 53.1758C107.606 53.4587 107.472 53.7738 107.318 54.1211L106.04 57H105.234L103.945 54.1211C103.794 53.7881 103.662 53.4837 103.547 53.208C103.433 52.9287 103.318 52.6566 103.204 52.3916C103.207 52.6458 103.211 52.9019 103.214 53.1597C103.218 53.4175 103.22 53.7415 103.22 54.1318V57H102.307ZM115.584 48.9971V57H114.649V49.9961H114.644L112.651 51.3174V50.3291L114.649 48.9971H115.584Z" fill="black"/>
<rect x="45" y="83" width="103" height="19" rx="9.5" fill="white"/>
<path d="M74.7949 96V87.9971H77.6631C78.4974 87.9971 79.158 88.2155 79.645 88.6523C80.1356 89.0856 80.3809 89.6764 80.3809 90.4248C80.3809 90.9225 80.2663 91.354 80.0371 91.7192C79.8115 92.0809 79.491 92.362 79.0757 92.5625C78.6639 92.7594 78.1787 92.8579 77.6201 92.8579H75.7617V96H74.7949ZM75.7617 91.9985H77.6309C78.1859 91.9985 78.6227 91.8589 78.9414 91.5796C79.2637 91.2967 79.4248 90.9118 79.4248 90.4248C79.4248 89.9378 79.2637 89.5547 78.9414 89.2754C78.6227 88.9961 78.1859 88.8564 77.6309 88.8564H75.7617V91.9985ZM83.4316 96.1289C82.8766 96.1289 82.4022 96.0018 82.0083 95.7476C81.618 95.4933 81.319 95.1442 81.1113 94.7002C80.9036 94.2526 80.7998 93.7441 80.7998 93.1748C80.7998 92.5983 80.909 92.0863 81.1274 91.6387C81.3459 91.1911 81.6484 90.8402 82.0352 90.5859C82.4219 90.3281 82.8659 90.1992 83.3672 90.1992C83.8936 90.1992 84.3501 90.3245 84.7368 90.5752C85.1235 90.8258 85.4207 91.175 85.6284 91.6226C85.8397 92.0701 85.9453 92.5876 85.9453 93.1748V93.4272H81.7021C81.7236 93.9823 81.883 94.4334 82.1802 94.7808C82.4774 95.1281 82.8945 95.3018 83.4316 95.3018C83.8363 95.3018 84.1657 95.2087 84.4199 95.0225C84.6777 94.8363 84.8496 94.5964 84.9355 94.3027H85.8486C85.777 94.6644 85.6284 94.9831 85.4028 95.2588C85.1772 95.5309 84.8944 95.744 84.5542 95.8979C84.2176 96.0519 83.8434 96.1289 83.4316 96.1289ZM81.7129 92.6431H85.0322C84.9821 92.1453 84.8084 91.7497 84.5112 91.4561C84.214 91.1624 83.8327 91.0156 83.3672 91.0156C82.9017 91.0156 82.5221 91.1624 82.2285 91.4561C81.9349 91.7497 81.763 92.1453 81.7129 92.6431ZM86.2246 96L88.6631 93.1211L86.2568 90.3281H87.3418L89.3506 92.7344H89.8447V90.3281H90.7578V92.7344H91.2412L93.2393 90.3281H94.335L91.9395 93.1211L94.3672 96H93.2607L91.2305 93.5938H90.7578V96H89.8447V93.5938H89.3721L87.3311 96H86.2246ZM99.9531 96H99.04V91.7729H99.0239L96.1182 96H95.2051V90.3281H96.1182V94.5605H96.1343L99.04 90.3281H99.9531V96ZM101.307 96V90.3281H102.676L104.148 93.6797C104.245 93.9017 104.332 94.1112 104.411 94.3081C104.49 94.5015 104.567 94.6948 104.642 94.8882C104.721 94.6948 104.798 94.5015 104.873 94.3081C104.952 94.1112 105.04 93.9017 105.136 93.6797L106.597 90.3281H107.967V96H107.054V93.1318C107.054 92.7272 107.056 92.3924 107.059 92.1274C107.063 91.8625 107.066 91.5975 107.07 91.3325C106.955 91.6082 106.839 91.8893 106.721 92.1758C106.606 92.4587 106.472 92.7738 106.318 93.1211L105.04 96H104.234L102.945 93.1211C102.794 92.7881 102.662 92.4837 102.547 92.208C102.433 91.9287 102.318 91.6566 102.204 91.3916C102.207 91.6458 102.211 91.9019 102.214 92.1597C102.218 92.4175 102.22 92.7415 102.22 93.1318V96H101.307ZM111.85 96V95.189L114.697 92.5894C115.037 92.2778 115.313 92.0039 115.524 91.7676C115.739 91.5312 115.896 91.3003 115.997 91.0747C116.097 90.8491 116.147 90.6003 116.147 90.3281C116.147 89.834 116 89.4437 115.707 89.1572C115.417 88.8708 115.017 88.7275 114.509 88.7275C113.961 88.7275 113.537 88.8958 113.236 89.2324C112.935 89.5654 112.785 90.0166 112.785 90.5859H111.882C111.882 90.0524 111.99 89.5815 112.205 89.1733C112.423 88.7651 112.729 88.4465 113.123 88.2173C113.517 87.9845 113.977 87.8682 114.503 87.8682C115.005 87.8682 115.447 87.972 115.83 88.1797C116.213 88.3838 116.514 88.6685 116.732 89.0337C116.951 89.3953 117.06 89.8143 117.06 90.2905C117.06 90.8062 116.917 91.2806 116.63 91.7139C116.347 92.1471 115.912 92.6305 115.325 93.1641L113.161 95.1299V95.1406H117.108V96H111.85Z" fill="black"/>
<rect x="45" y="122" width="103" height="19" rx="9.5" fill="white"/>
<path d="M74.7949 135V126.997H77.6631C78.4974 126.997 79.158 127.215 79.645 127.652C80.1356 128.086 80.3809 128.676 80.3809 129.425C80.3809 129.923 80.2663 130.354 80.0371 130.719C79.8115 131.081 79.491 131.362 79.0757 131.562C78.6639 131.759 78.1787 131.858 77.6201 131.858H75.7617V135H74.7949ZM75.7617 130.999H77.6309C78.1859 130.999 78.6227 130.859 78.9414 130.58C79.2637 130.297 79.4248 129.912 79.4248 129.425C79.4248 128.938 79.2637 128.555 78.9414 128.275C78.6227 127.996 78.1859 127.856 77.6309 127.856H75.7617V130.999ZM83.4316 135.129C82.8766 135.129 82.4022 135.002 82.0083 134.748C81.618 134.493 81.319 134.144 81.1113 133.7C80.9036 133.253 80.7998 132.744 80.7998 132.175C80.7998 131.598 80.909 131.086 81.1274 130.639C81.3459 130.191 81.6484 129.84 82.0352 129.586C82.4219 129.328 82.8659 129.199 83.3672 129.199C83.8936 129.199 84.3501 129.325 84.7368 129.575C85.1235 129.826 85.4207 130.175 85.6284 130.623C85.8397 131.07 85.9453 131.588 85.9453 132.175V132.427H81.7021C81.7236 132.982 81.883 133.433 82.1802 133.781C82.4774 134.128 82.8945 134.302 83.4316 134.302C83.8363 134.302 84.1657 134.209 84.4199 134.022C84.6777 133.836 84.8496 133.596 84.9355 133.303H85.8486C85.777 133.664 85.6284 133.983 85.4028 134.259C85.1772 134.531 84.8944 134.744 84.5542 134.898C84.2176 135.052 83.8434 135.129 83.4316 135.129ZM81.7129 131.643H85.0322C84.9821 131.145 84.8084 130.75 84.5112 130.456C84.214 130.162 83.8327 130.016 83.3672 130.016C82.9017 130.016 82.5221 130.162 82.2285 130.456C81.9349 130.75 81.763 131.145 81.7129 131.643ZM86.2246 135L88.6631 132.121L86.2568 129.328H87.3418L89.3506 131.734H89.8447V129.328H90.7578V131.734H91.2412L93.2393 129.328H94.335L91.9395 132.121L94.3672 135H93.2607L91.2305 132.594H90.7578V135H89.8447V132.594H89.3721L87.3311 135H86.2246ZM99.9531 135H99.04V130.773H99.0239L96.1182 135H95.2051V129.328H96.1182V133.561H96.1343L99.04 129.328H99.9531V135ZM101.307 135V129.328H102.676L104.148 132.68C104.245 132.902 104.332 133.111 104.411 133.308C104.49 133.501 104.567 133.695 104.642 133.888C104.721 133.695 104.798 133.501 104.873 133.308C104.952 133.111 105.04 132.902 105.136 132.68L106.597 129.328H107.967V135H107.054V132.132C107.054 131.727 107.056 131.392 107.059 131.127C107.063 130.862 107.066 130.597 107.07 130.333C106.955 130.608 106.839 130.889 106.721 131.176C106.606 131.459 106.472 131.774 106.318 132.121L105.04 135H104.234L102.945 132.121C102.794 131.788 102.662 131.484 102.547 131.208C102.433 130.929 102.318 130.657 102.204 130.392C102.207 130.646 102.211 130.902 102.214 131.16C102.218 131.417 102.22 131.742 102.22 132.132V135H101.307ZM114.724 135.129C114.172 135.129 113.685 135.018 113.263 134.796C112.84 134.57 112.509 134.259 112.269 133.861C112.029 133.464 111.909 133.006 111.909 132.486H112.887C112.887 133.052 113.046 133.493 113.365 133.808C113.683 134.123 114.129 134.28 114.702 134.28C115.25 134.28 115.694 134.142 116.034 133.867C116.378 133.587 116.55 133.213 116.55 132.744C116.55 132.318 116.367 131.976 116.002 131.718C115.637 131.457 115.16 131.326 114.573 131.326H113.929V130.467H114.573C115.089 130.467 115.506 130.349 115.825 130.112C116.143 129.872 116.303 129.557 116.303 129.167C116.303 128.716 116.152 128.361 115.852 128.104C115.554 127.846 115.157 127.717 114.659 127.717C114.151 127.717 113.75 127.86 113.456 128.146C113.162 128.429 113.016 128.823 113.016 129.328H112.081C112.081 128.845 112.19 128.419 112.409 128.05C112.631 127.677 112.935 127.387 113.322 127.18C113.712 126.972 114.16 126.868 114.665 126.868C115.155 126.868 115.596 126.965 115.986 127.158C116.376 127.352 116.684 127.617 116.91 127.953C117.135 128.29 117.248 128.676 117.248 129.113C117.248 129.518 117.119 129.878 116.861 130.193C116.607 130.504 116.256 130.728 115.809 130.864V130.88C116.321 130.966 116.729 131.181 117.033 131.525C117.341 131.865 117.495 132.271 117.495 132.744C117.495 133.21 117.373 133.623 117.13 133.985C116.89 134.343 116.561 134.624 116.142 134.828C115.726 135.029 115.254 135.129 114.724 135.129Z" fill="black"/>
</svg>
