<svg width="193" height="186" viewBox="0 0 193 186" fill="none" xmlns="http://www.w3.org/2000/svg">
<rect x="0.5" y="0.5" width="192" height="185" rx="4.5" fill="white"/>
<rect x="0.5" y="0.5" width="192" height="185" rx="4.5" stroke="black"/>
<circle cx="96.5" cy="78.5" r="38" stroke="#BFBFBF"/>
<mask id="path-3-inside-1_8_378" fill="white">
<path d="M143.5 117C153.711 117 163.503 112.944 170.724 105.724C177.944 98.5035 182 88.7108 182 78.5C182 68.2892 177.944 58.4965 170.724 51.2764C163.503 44.0562 153.711 40 143.5 40L143.5 78.5V117Z"/>
</mask>
<path d="M143.5 117C153.711 117 163.503 112.944 170.724 105.724C177.944 98.5035 182 88.7108 182 78.5C182 68.2892 177.944 58.4965 170.724 51.2764C163.503 44.0562 153.711 40 143.5 40L143.5 78.5V117Z" stroke="#BFBFBF" stroke-width="2" mask="url(#path-3-inside-1_8_378)"/>
<mask id="path-4-inside-2_8_378" fill="white">
<path d="M49.5 40C39.2892 40 29.4965 44.0562 22.2764 51.2764C15.0562 58.4965 11 68.2892 11 78.5C11 88.7108 15.0562 98.5035 22.2764 105.724C29.4965 112.944 39.2892 117 49.5 117L49.5 78.5L49.5 40Z"/>
</mask>
<path d="M49.5 40C39.2892 40 29.4965 44.0562 22.2764 51.2764C15.0562 58.4965 11 68.2892 11 78.5C11 88.7108 15.0562 98.5035 22.2764 105.724C29.4965 112.944 39.2892 117 49.5 117L49.5 78.5L49.5 40Z" stroke="#BFBFBF" stroke-width="2" mask="url(#path-4-inside-2_8_378)"/>
<circle cx="96.5" cy="79.5" r="17.5" fill="black"/>
<path d="M90.5658 63.2292C92.0436 63.6609 92.4999 65.5306 91.3871 66.5946L83.2499 74.3749C82.1371 75.4389 80.2898 74.8993 79.9247 73.4036L77.2554 62.4663C76.8903 60.9706 78.2813 59.6406 79.7591 60.0723L90.5658 63.2292Z" fill="black"/>
<path d="M102.815 63.2292C101.337 63.6609 100.881 65.5306 101.994 66.5946L110.131 74.3749C111.244 75.4389 113.091 74.8993 113.456 73.4036L116.125 62.4663C116.491 60.9706 115.1 59.6406 113.622 60.0723L102.815 63.2292Z" fill="black"/>
<path d="M100.5 81L125.5 75" stroke="black"/>
<path d="M93 81L68 75" stroke="black"/>
<path d="M101 82L115 89.5" stroke="black"/>
<path d="M92 82L78 89.5" stroke="black"/>
<path d="M102.5 81.5L121.5 83" stroke="black"/>
<path d="M92 81L73 82.5" stroke="black"/>
<rect x="45" y="140" width="103" height="19" rx="9.5" fill="#BFBFBF"/>
<path d="M54.7949 153V144.997H57.6846C58.4867 144.997 59.1169 145.189 59.5752 145.572C60.0335 145.955 60.2627 146.472 60.2627 147.124C60.2627 147.582 60.1481 147.951 59.9189 148.23C59.6898 148.51 59.3711 148.717 58.9629 148.854V148.864C59.4176 148.939 59.8026 149.131 60.1177 149.439C60.4328 149.743 60.5903 150.182 60.5903 150.755C60.5903 151.439 60.354 151.985 59.8813 152.393C59.4087 152.798 58.6908 153 57.7275 153H54.7949ZM55.7617 152.141H57.7275C58.3327 152.141 58.7964 152.028 59.1187 151.802C59.4445 151.573 59.6074 151.236 59.6074 150.792C59.6074 150.348 59.4499 149.999 59.1348 149.745C58.8197 149.487 58.3685 149.358 57.7812 149.358H55.7617V152.141ZM55.7617 148.51H57.7222C58.2199 148.51 58.6084 148.392 58.8877 148.155C59.167 147.915 59.3066 147.591 59.3066 147.183C59.3066 146.775 59.167 146.453 58.8877 146.216C58.6084 145.976 58.2199 145.856 57.7222 145.856H55.7617V148.51ZM62.6152 149.262H64.2588C64.6777 149.262 65.0465 149.34 65.3652 149.498C65.6839 149.656 65.9328 149.874 66.1118 150.153C66.2944 150.429 66.3857 150.748 66.3857 151.109C66.3857 151.478 66.2944 151.806 66.1118 152.092C65.9328 152.375 65.6839 152.597 65.3652 152.758C65.0465 152.919 64.6777 153 64.2588 153H61.7021V147.328H62.6152V149.262ZM62.6152 150.121V152.141H64.2266C64.6097 152.141 64.9123 152.048 65.1343 151.861C65.3599 151.675 65.4727 151.424 65.4727 151.109C65.4727 150.805 65.3599 150.565 65.1343 150.39C64.9123 150.211 64.6097 150.121 64.2266 150.121H62.6152ZM66.9336 153V147.328H67.8467V153H66.9336ZM73.6475 144.75L74.1201 145.309C73.9375 145.488 73.7262 145.613 73.4863 145.685C73.2464 145.753 72.9743 145.796 72.6699 145.813C72.3691 145.828 72.0326 145.842 71.6602 145.856C71.0371 145.882 70.5716 146.098 70.2637 146.506C69.9593 146.915 69.7767 147.507 69.7158 148.284H69.791C69.9915 147.908 70.2708 147.632 70.6289 147.457C70.9906 147.278 71.3773 147.188 71.7891 147.188C72.2581 147.188 72.6789 147.298 73.0513 147.516C73.4272 147.735 73.7244 148.059 73.9429 148.488C74.1613 148.918 74.2705 149.448 74.2705 150.078C74.2705 150.705 74.1595 151.247 73.9375 151.706C73.7155 152.16 73.404 152.511 73.0029 152.758C72.6055 153.005 72.14 153.129 71.6064 153.129C70.7972 153.129 70.1455 152.842 69.6514 152.27C69.1572 151.697 68.9102 150.855 68.9102 149.745V149.111C68.9173 146.415 69.8304 145.044 71.6494 144.997C71.764 144.993 71.875 144.992 71.9824 144.992C72.0898 144.992 72.1919 144.992 72.2886 144.992C72.5965 144.995 72.8615 144.988 73.0835 144.97C73.3091 144.949 73.4971 144.875 73.6475 144.75ZM71.6064 152.302C72.1471 152.298 72.5715 152.096 72.8794 151.695C73.1909 151.294 73.3467 150.755 73.3467 150.078C73.3467 149.423 73.1909 148.916 72.8794 148.558C72.5679 148.196 72.1364 148.016 71.585 148.016C71.0514 148.016 70.6289 148.196 70.3174 148.558C70.0059 148.916 69.8447 149.423 69.834 150.078C69.834 150.748 69.9915 151.285 70.3066 151.689C70.6217 152.094 71.055 152.298 71.6064 152.302ZM75.334 155.245V147.328H76.2256V148.166H76.2363C76.4189 147.847 76.6714 147.611 76.9937 147.457C77.3159 147.299 77.6615 147.221 78.0303 147.221C78.5244 147.221 78.9559 147.344 79.3247 147.591C79.6935 147.838 79.98 148.184 80.1841 148.628C80.3882 149.068 80.4902 149.58 80.4902 150.164C80.4902 150.744 80.3882 151.256 80.1841 151.7C79.98 152.141 79.6935 152.486 79.3247 152.737C78.9559 152.984 78.5244 153.107 78.0303 153.107C77.6615 153.107 77.3249 153.029 77.0205 152.871C76.7161 152.71 76.4619 152.466 76.2578 152.141H76.2471V155.245H75.334ZM77.8906 152.286C78.3812 152.286 78.7822 152.107 79.0938 151.749C79.4089 151.387 79.5664 150.859 79.5664 150.164C79.5664 149.469 79.4089 148.941 79.0938 148.58C78.7822 148.218 78.3812 148.037 77.8906 148.037C77.3643 148.037 76.9453 148.232 76.6338 148.623C76.3258 149.009 76.1719 149.523 76.1719 150.164C76.1719 150.805 76.3258 151.319 76.6338 151.706C76.9453 152.092 77.3643 152.286 77.8906 152.286ZM83.3369 153.086C82.7747 153.086 82.3039 152.941 81.9243 152.651C81.5483 152.361 81.3604 151.933 81.3604 151.367C81.3604 151.041 81.423 150.776 81.5483 150.572C81.6772 150.368 81.8473 150.209 82.0586 150.094C82.2734 149.976 82.5151 149.887 82.7837 149.826C83.0558 149.765 83.3333 149.716 83.6162 149.681C83.9779 149.631 84.2625 149.593 84.4702 149.568C84.6779 149.543 84.8247 149.502 84.9106 149.444C85.0002 149.387 85.0449 149.287 85.0449 149.144V149.09C85.0449 148.782 84.9339 148.528 84.7119 148.327C84.4935 148.127 84.1855 148.026 83.7881 148.026C83.3942 148.026 83.0701 148.123 82.8159 148.316C82.5653 148.506 82.4292 148.743 82.4077 149.025H81.4785C81.4964 148.678 81.6038 148.37 81.8008 148.102C81.9977 147.829 82.2663 147.615 82.6064 147.457C82.9466 147.299 83.3405 147.221 83.7881 147.221C84.4505 147.221 84.9751 147.393 85.3618 147.736C85.7521 148.076 85.9473 148.528 85.9473 149.09V153H85.0449V152.194H85.0234C84.9554 152.33 84.8551 152.468 84.7227 152.608C84.5902 152.744 84.4111 152.859 84.1855 152.952C83.9635 153.041 83.6807 153.086 83.3369 153.086ZM83.4658 152.27C83.8382 152.27 84.1408 152.203 84.3735 152.071C84.6063 151.935 84.7764 151.759 84.8838 151.544C84.9912 151.33 85.0449 151.099 85.0449 150.852V150.143C84.9769 150.207 84.7961 150.266 84.5024 150.32C84.2088 150.37 83.8991 150.418 83.5732 150.465C83.3548 150.493 83.1471 150.544 82.9502 150.615C82.7568 150.683 82.5993 150.782 82.4775 150.911C82.3558 151.036 82.2949 151.206 82.2949 151.421C82.2949 151.686 82.3988 151.894 82.6064 152.044C82.8177 152.194 83.1042 152.27 83.4658 152.27ZM88.6865 153V148.155H86.7046V147.328H91.5708V148.155H89.5996V153H88.6865ZM93.2412 149.262H94.8848C95.3037 149.262 95.6725 149.34 95.9912 149.498C96.3099 149.656 96.5588 149.874 96.7378 150.153C96.9204 150.429 97.0117 150.748 97.0117 151.109C97.0117 151.478 96.9204 151.806 96.7378 152.092C96.5588 152.375 96.3099 152.597 95.9912 152.758C95.6725 152.919 95.3037 153 94.8848 153H92.3281V147.328H93.2412V149.262ZM93.2412 150.121V152.141H94.8525C95.2357 152.141 95.5382 152.048 95.7603 151.861C95.9858 151.675 96.0986 151.424 96.0986 151.109C96.0986 150.805 95.9858 150.565 95.7603 150.39C95.5382 150.211 95.2357 150.121 94.8525 150.121H93.2412ZM102.555 153.086C101.993 153.086 101.522 152.941 101.142 152.651C100.766 152.361 100.578 151.933 100.578 151.367C100.578 151.041 100.641 150.776 100.766 150.572C100.895 150.368 101.065 150.209 101.276 150.094C101.491 149.976 101.733 149.887 102.001 149.826C102.274 149.765 102.551 149.716 102.834 149.681C103.196 149.631 103.48 149.593 103.688 149.568C103.896 149.543 104.042 149.502 104.128 149.444C104.218 149.387 104.263 149.287 104.263 149.144V149.09C104.263 148.782 104.152 148.528 103.93 148.327C103.711 148.127 103.403 148.026 103.006 148.026C102.612 148.026 102.288 148.123 102.034 148.316C101.783 148.506 101.647 148.743 101.625 149.025H100.696C100.714 148.678 100.822 148.37 101.019 148.102C101.215 147.829 101.484 147.615 101.824 147.457C102.164 147.299 102.558 147.221 103.006 147.221C103.668 147.221 104.193 147.393 104.58 147.736C104.97 148.076 105.165 148.528 105.165 149.09V153H104.263V152.194H104.241C104.173 152.33 104.073 152.468 103.94 152.608C103.808 152.744 103.629 152.859 103.403 152.952C103.181 153.041 102.898 153.086 102.555 153.086ZM102.684 152.27C103.056 152.27 103.359 152.203 103.591 152.071C103.824 151.935 103.994 151.759 104.102 151.544C104.209 151.33 104.263 151.099 104.263 150.852V150.143C104.195 150.207 104.014 150.266 103.72 150.32C103.427 150.37 103.117 150.418 102.791 150.465C102.573 150.493 102.365 150.544 102.168 150.615C101.975 150.683 101.817 150.782 101.695 150.911C101.574 151.036 101.513 151.206 101.513 151.421C101.513 151.686 101.617 151.894 101.824 152.044C102.035 152.194 102.322 152.27 102.684 152.27ZM106.519 153V147.328H108.882C109.526 147.328 110.038 147.459 110.418 147.72C110.798 147.982 110.987 148.354 110.987 148.837C110.987 149.174 110.894 149.439 110.708 149.632C110.522 149.822 110.275 149.951 109.967 150.019C110.178 150.051 110.379 150.121 110.568 150.229C110.758 150.332 110.912 150.481 111.03 150.674C111.152 150.864 111.213 151.104 111.213 151.394C111.213 151.87 111.039 152.257 110.692 152.554C110.345 152.851 109.867 153 109.258 153H106.519ZM107.389 152.151H109.258C109.584 152.151 109.833 152.083 110.004 151.947C110.18 151.808 110.268 151.612 110.268 151.362C110.268 151.079 110.18 150.862 110.004 150.712C109.833 150.558 109.584 150.481 109.258 150.481H107.389V152.151ZM107.389 149.697H108.925C109.29 149.697 109.571 149.629 109.768 149.493C109.965 149.353 110.063 149.156 110.063 148.902C110.063 148.669 109.961 148.49 109.757 148.365C109.553 148.239 109.261 148.177 108.882 148.177H107.389V149.697ZM114.017 153.086C113.454 153.086 112.984 152.941 112.604 152.651C112.228 152.361 112.04 151.933 112.04 151.367C112.04 151.041 112.103 150.776 112.228 150.572C112.357 150.368 112.527 150.209 112.738 150.094C112.953 149.976 113.195 149.887 113.463 149.826C113.736 149.765 114.013 149.716 114.296 149.681C114.658 149.631 114.942 149.593 115.15 149.568C115.358 149.543 115.504 149.502 115.59 149.444C115.68 149.387 115.725 149.287 115.725 149.144V149.09C115.725 148.782 115.614 148.528 115.392 148.327C115.173 148.127 114.865 148.026 114.468 148.026C114.074 148.026 113.75 148.123 113.496 148.316C113.245 148.506 113.109 148.743 113.087 149.025H112.158C112.176 148.678 112.284 148.37 112.48 148.102C112.677 147.829 112.946 147.615 113.286 147.457C113.626 147.299 114.02 147.221 114.468 147.221C115.13 147.221 115.655 147.393 116.042 147.736C116.432 148.076 116.627 148.528 116.627 149.09V153H115.725V152.194H115.703C115.635 152.33 115.535 152.468 115.402 152.608C115.27 152.744 115.091 152.859 114.865 152.952C114.643 153.041 114.36 153.086 114.017 153.086ZM114.146 152.27C114.518 152.27 114.82 152.203 115.053 152.071C115.286 151.935 115.456 151.759 115.563 151.544C115.671 151.33 115.725 151.099 115.725 150.852V150.143C115.657 150.207 115.476 150.266 115.182 150.32C114.889 150.37 114.579 150.418 114.253 150.465C114.035 150.493 113.827 150.544 113.63 150.615C113.437 150.683 113.279 150.782 113.157 150.911C113.035 151.036 112.975 151.206 112.975 151.421C112.975 151.686 113.078 151.894 113.286 152.044C113.497 152.194 113.784 152.27 114.146 152.27ZM119.366 153V148.155H117.384V147.328H122.25V148.155H120.279V153H119.366ZM124.565 153.086C124.003 153.086 123.532 152.941 123.153 152.651C122.777 152.361 122.589 151.933 122.589 151.367C122.589 151.041 122.652 150.776 122.777 150.572C122.906 150.368 123.076 150.209 123.287 150.094C123.502 149.976 123.744 149.887 124.012 149.826C124.284 149.765 124.562 149.716 124.845 149.681C125.206 149.631 125.491 149.593 125.699 149.568C125.906 149.543 126.053 149.502 126.139 149.444C126.229 149.387 126.273 149.287 126.273 149.144V149.09C126.273 148.782 126.162 148.528 125.94 148.327C125.722 148.127 125.414 148.026 125.017 148.026C124.623 148.026 124.299 148.123 124.044 148.316C123.794 148.506 123.658 148.743 123.636 149.025H122.707C122.725 148.678 122.832 148.37 123.029 148.102C123.226 147.829 123.495 147.615 123.835 147.457C124.175 147.299 124.569 147.221 125.017 147.221C125.679 147.221 126.204 147.393 126.59 147.736C126.981 148.076 127.176 148.528 127.176 149.09V153H126.273V152.194H126.252C126.184 152.33 126.084 152.468 125.951 152.608C125.819 152.744 125.64 152.859 125.414 152.952C125.192 153.041 124.909 153.086 124.565 153.086ZM124.694 152.27C125.067 152.27 125.369 152.203 125.602 152.071C125.835 151.935 126.005 151.759 126.112 151.544C126.22 151.33 126.273 151.099 126.273 150.852V150.143C126.205 150.207 126.025 150.266 125.731 150.32C125.437 150.37 125.128 150.418 124.802 150.465C124.583 150.493 124.376 150.544 124.179 150.615C123.985 150.683 123.828 150.782 123.706 150.911C123.584 151.036 123.523 151.206 123.523 151.421C123.523 151.686 123.627 151.894 123.835 152.044C124.046 152.194 124.333 152.27 124.694 152.27ZM128.529 155.245V147.328H129.421V148.166H129.432C129.614 147.847 129.867 147.611 130.189 147.457C130.511 147.299 130.857 147.221 131.226 147.221C131.72 147.221 132.151 147.344 132.52 147.591C132.889 147.838 133.175 148.184 133.379 148.628C133.583 149.068 133.686 149.58 133.686 150.164C133.686 150.744 133.583 151.256 133.379 151.7C133.175 152.141 132.889 152.486 132.52 152.737C132.151 152.984 131.72 153.107 131.226 153.107C130.857 153.107 130.52 153.029 130.216 152.871C129.911 152.71 129.657 152.466 129.453 152.141H129.442V155.245H128.529ZM131.086 152.286C131.576 152.286 131.978 152.107 132.289 151.749C132.604 151.387 132.762 150.859 132.762 150.164C132.762 149.469 132.604 148.941 132.289 148.58C131.978 148.218 131.576 148.037 131.086 148.037C130.56 148.037 130.141 148.232 129.829 148.623C129.521 149.009 129.367 149.523 129.367 150.164C129.367 150.805 129.521 151.319 129.829 151.706C130.141 152.092 130.56 152.286 131.086 152.286Z" fill="white"/>
</svg>
