<svg width="193" height="186" viewBox="0 0 193 186" fill="none" xmlns="http://www.w3.org/2000/svg">
<rect x="0.5" y="0.5" width="192" height="185" rx="4.5" fill="white"/>
<rect x="0.5" y="0.5" width="192" height="185" rx="4.5" stroke="black"/>
<rect x="23.5" y="20.5" width="145" height="145" fill="#BFBFBF" stroke="#BFBFBF"/>
<rect x="55" y="126" width="88" height="19" rx="9.5" fill="white"/>
<path d="M76.1841 139.129C75.4465 139.129 74.8001 138.953 74.2451 138.603C73.6901 138.248 73.2568 137.761 72.9453 137.142C72.6374 136.519 72.4834 135.806 72.4834 135.004C72.4834 134.195 72.6374 133.48 72.9453 132.861C73.2533 132.238 73.6847 131.751 74.2397 131.4C74.7983 131.045 75.4465 130.868 76.1841 130.868C76.7427 130.868 77.2529 130.979 77.7148 131.201C78.1768 131.42 78.5617 131.733 78.8696 132.141C79.1812 132.546 79.3853 133.027 79.4819 133.586H78.4937C78.3647 133.002 78.0926 132.555 77.6772 132.243C77.2655 131.928 76.7677 131.771 76.1841 131.771C75.6219 131.771 75.1367 131.908 74.7285 132.184C74.3203 132.456 74.0052 132.836 73.7832 133.323C73.5612 133.806 73.4502 134.367 73.4502 135.004C73.4502 135.638 73.5612 136.196 73.7832 136.68C74.0052 137.163 74.3203 137.543 74.7285 137.818C75.1367 138.09 75.6219 138.227 76.1841 138.227C76.7606 138.227 77.2565 138.071 77.6719 137.759C78.0872 137.448 78.363 137.002 78.499 136.422H79.4819C79.3853 136.977 79.1829 137.457 78.875 137.861C78.5671 138.266 78.1803 138.579 77.7148 138.801C77.2529 139.02 76.7427 139.129 76.1841 139.129ZM82.9678 139.129C82.445 139.129 81.9849 139.004 81.5874 138.753C81.1935 138.499 80.8856 138.15 80.6636 137.706C80.4451 137.262 80.3359 136.751 80.3359 136.175C80.3359 135.595 80.4451 135.081 80.6636 134.633C80.8856 134.186 81.1935 133.835 81.5874 133.581C81.9849 133.326 82.445 133.199 82.9678 133.199C83.4941 133.199 83.9543 133.326 84.3481 133.581C84.742 133.835 85.0482 134.186 85.2666 134.633C85.4886 135.081 85.5996 135.595 85.5996 136.175C85.5996 136.751 85.4886 137.262 85.2666 137.706C85.0482 138.15 84.742 138.499 84.3481 138.753C83.9543 139.004 83.4941 139.129 82.9678 139.129ZM82.9678 138.302C83.5049 138.302 83.9238 138.108 84.2246 137.722C84.5254 137.331 84.6758 136.816 84.6758 136.175C84.6758 135.527 84.5236 135.007 84.2192 134.617C83.9185 134.223 83.5013 134.026 82.9678 134.026C82.4342 134.026 82.0153 134.222 81.7109 134.612C81.4102 135.002 81.2598 135.523 81.2598 136.175C81.2598 136.819 81.4102 137.335 81.7109 137.722C82.0117 138.108 82.4307 138.302 82.9678 138.302ZM90.3584 133.328V134.188H87.5762V139H86.6631V133.328H90.3584ZM90.7075 139V138.141H90.9224C91.105 138.141 91.2554 138.114 91.3735 138.06C91.4953 138.003 91.592 137.895 91.6636 137.738C91.7388 137.577 91.7961 137.344 91.8354 137.04C91.8784 136.732 91.9106 136.325 91.9321 135.82L92.0396 133.328H96.0356V139H95.1226V134.188H92.9097L92.813 136.164C92.7808 136.819 92.7091 137.356 92.5981 137.775C92.4871 138.191 92.3063 138.499 92.0557 138.699C91.8086 138.9 91.4631 139 91.019 139H90.7075ZM99.124 139.086C98.5618 139.086 98.091 138.941 97.7114 138.651C97.3354 138.361 97.1475 137.933 97.1475 137.367C97.1475 137.041 97.2101 136.776 97.3354 136.572C97.4644 136.368 97.6344 136.209 97.8457 136.094C98.0605 135.976 98.3022 135.887 98.5708 135.826C98.8429 135.765 99.1204 135.716 99.4033 135.681C99.765 135.631 100.05 135.593 100.257 135.568C100.465 135.543 100.612 135.502 100.698 135.444C100.787 135.387 100.832 135.287 100.832 135.144V135.09C100.832 134.782 100.721 134.528 100.499 134.327C100.281 134.127 99.9727 134.026 99.5752 134.026C99.1813 134.026 98.8573 134.123 98.603 134.316C98.3524 134.506 98.2163 134.743 98.1948 135.025H97.2656C97.2835 134.678 97.391 134.37 97.5879 134.102C97.7848 133.829 98.0534 133.615 98.3936 133.457C98.7337 133.299 99.1276 133.221 99.5752 133.221C100.238 133.221 100.762 133.393 101.149 133.736C101.539 134.076 101.734 134.528 101.734 135.09V139H100.832V138.194H100.811C100.743 138.33 100.642 138.468 100.51 138.608C100.377 138.744 100.198 138.859 99.9727 138.952C99.7507 139.041 99.4678 139.086 99.124 139.086ZM99.2529 138.27C99.6253 138.27 99.9279 138.203 100.161 138.071C100.393 137.935 100.563 137.759 100.671 137.544C100.778 137.33 100.832 137.099 100.832 136.852V136.143C100.764 136.207 100.583 136.266 100.29 136.32C99.9959 136.37 99.6862 136.418 99.3604 136.465C99.1419 136.493 98.9342 136.544 98.7373 136.615C98.5439 136.683 98.3864 136.782 98.2646 136.911C98.1429 137.036 98.082 137.206 98.082 137.421C98.082 137.686 98.1859 137.894 98.3936 138.044C98.6048 138.194 98.8913 138.27 99.2529 138.27ZM105.43 139.129C104.907 139.129 104.447 139.004 104.049 138.753C103.655 138.499 103.347 138.15 103.125 137.706C102.907 137.262 102.798 136.751 102.798 136.175C102.798 135.595 102.907 135.081 103.125 134.633C103.347 134.186 103.655 133.835 104.049 133.581C104.447 133.326 104.907 133.199 105.43 133.199C105.859 133.199 106.244 133.285 106.584 133.457C106.925 133.625 107.202 133.858 107.417 134.155C107.635 134.452 107.77 134.793 107.82 135.176H106.896C106.828 134.843 106.67 134.569 106.423 134.354C106.18 134.136 105.849 134.026 105.43 134.026C104.896 134.026 104.477 134.222 104.173 134.612C103.872 135.002 103.722 135.523 103.722 136.175C103.722 136.819 103.872 137.335 104.173 137.722C104.474 138.108 104.893 138.302 105.43 138.302C105.856 138.302 106.182 138.198 106.407 137.99C106.633 137.779 106.79 137.5 106.88 137.152H107.82C107.77 137.525 107.635 137.861 107.417 138.162C107.202 138.459 106.923 138.696 106.579 138.871C106.239 139.043 105.856 139.129 105.43 139.129ZM113.594 139H112.681V134.773H112.665L109.759 139H108.846V133.328H109.759V137.561H109.775L112.681 133.328H113.594V139ZM117.289 139.129C116.734 139.129 116.26 139.002 115.866 138.748C115.475 138.493 115.176 138.144 114.969 137.7C114.761 137.253 114.657 136.744 114.657 136.175C114.657 135.598 114.766 135.086 114.985 134.639C115.203 134.191 115.506 133.84 115.893 133.586C116.279 133.328 116.723 133.199 117.225 133.199C117.751 133.199 118.208 133.325 118.594 133.575C118.981 133.826 119.278 134.175 119.486 134.623C119.697 135.07 119.803 135.588 119.803 136.175V136.427H115.56C115.581 136.982 115.74 137.433 116.038 137.781C116.335 138.128 116.752 138.302 117.289 138.302C117.694 138.302 118.023 138.209 118.277 138.022C118.535 137.836 118.707 137.596 118.793 137.303H119.706C119.634 137.664 119.486 137.983 119.26 138.259C119.035 138.531 118.752 138.744 118.412 138.898C118.075 139.052 117.701 139.129 117.289 139.129ZM115.57 135.643H118.89C118.84 135.145 118.666 134.75 118.369 134.456C118.071 134.162 117.69 134.016 117.225 134.016C116.759 134.016 116.38 134.162 116.086 134.456C115.792 134.75 115.62 135.145 115.57 135.643Z" fill="black"/>
<rect x="55" y="44" width="14" height="14" rx="1" fill="white"/>
<path d="M58 52L61.5 55.5L66 46" stroke="#BFBFBF"/>
<rect x="55" y="67" width="14" height="14" rx="1" fill="white"/>
<path d="M58 75L61.5 78.5L66 69" stroke="#BFBFBF"/>
<rect x="55" y="93" width="14" height="14" rx="1" fill="white"/>
<path d="M58 101L61.5 104.5L66 95" stroke="#BFBFBF"/>
</svg>
