<svg width="193" height="186" viewBox="0 0 193 186" fill="none" xmlns="http://www.w3.org/2000/svg">
<rect x="0.5" y="0.5" width="192" height="185" rx="4.5" fill="white"/>
<rect x="0.5" y="0.5" width="192" height="185" rx="4.5" stroke="black"/>
<rect x="23.5" y="20.5" width="145" height="145" fill="#BFBFBF" stroke="#BFBFBF"/>
<rect x="45" y="126" width="103" height="19" rx="9.5" fill="white"/>
<path d="M58.1841 139.129C57.4465 139.129 56.8001 138.953 56.2451 138.603C55.6901 138.248 55.2568 137.761 54.9453 137.142C54.6374 136.519 54.4834 135.806 54.4834 135.004C54.4834 134.195 54.6374 133.48 54.9453 132.861C55.2533 132.238 55.6847 131.751 56.2397 131.4C56.7983 131.045 57.4465 130.868 58.1841 130.868C58.7427 130.868 59.2529 130.979 59.7148 131.201C60.1768 131.42 60.5617 131.733 60.8696 132.141C61.1812 132.546 61.3853 133.027 61.4819 133.586H60.4937C60.3647 133.002 60.0926 132.555 59.6772 132.243C59.2655 131.928 58.7677 131.771 58.1841 131.771C57.6219 131.771 57.1367 131.908 56.7285 132.184C56.3203 132.456 56.0052 132.836 55.7832 133.323C55.5612 133.806 55.4502 134.367 55.4502 135.004C55.4502 135.638 55.5612 136.196 55.7832 136.68C56.0052 137.163 56.3203 137.543 56.7285 137.818C57.1367 138.09 57.6219 138.227 58.1841 138.227C58.7606 138.227 59.2565 138.071 59.6719 137.759C60.0872 137.448 60.363 137.002 60.499 136.422H61.4819C61.3853 136.977 61.1829 137.457 60.875 137.861C60.5671 138.266 60.1803 138.579 59.7148 138.801C59.2529 139.02 58.7427 139.129 58.1841 139.129ZM64.9678 139.129C64.445 139.129 63.9849 139.004 63.5874 138.753C63.1935 138.499 62.8856 138.15 62.6636 137.706C62.4451 137.262 62.3359 136.751 62.3359 136.175C62.3359 135.595 62.4451 135.081 62.6636 134.633C62.8856 134.186 63.1935 133.835 63.5874 133.581C63.9849 133.326 64.445 133.199 64.9678 133.199C65.4941 133.199 65.9543 133.326 66.3481 133.581C66.742 133.835 67.0482 134.186 67.2666 134.633C67.4886 135.081 67.5996 135.595 67.5996 136.175C67.5996 136.751 67.4886 137.262 67.2666 137.706C67.0482 138.15 66.742 138.499 66.3481 138.753C65.9543 139.004 65.4941 139.129 64.9678 139.129ZM64.9678 138.302C65.5049 138.302 65.9238 138.108 66.2246 137.722C66.5254 137.331 66.6758 136.816 66.6758 136.175C66.6758 135.527 66.5236 135.007 66.2192 134.617C65.9185 134.223 65.5013 134.026 64.9678 134.026C64.4342 134.026 64.0153 134.222 63.7109 134.612C63.4102 135.002 63.2598 135.523 63.2598 136.175C63.2598 136.819 63.4102 137.335 63.7109 137.722C64.0117 138.108 64.4307 138.302 64.9678 138.302ZM70.5645 139.086C70.1276 139.086 69.7445 139.011 69.415 138.86C69.0892 138.706 68.835 138.499 68.6523 138.237C68.4733 137.976 68.3802 137.681 68.373 137.351H69.2808C69.2915 137.652 69.4132 137.888 69.646 138.06C69.8787 138.232 70.1795 138.318 70.5483 138.318C70.9315 138.318 71.2412 138.234 71.4775 138.065C71.7174 137.894 71.8374 137.672 71.8374 137.399C71.8374 137.117 71.7139 136.887 71.4668 136.712C71.2197 136.533 70.8813 136.443 70.4517 136.443H70.022V135.718H70.4517C70.8097 135.718 71.0998 135.638 71.3218 135.477C71.5438 135.312 71.6548 135.095 71.6548 134.827C71.6548 134.565 71.5545 134.356 71.354 134.198C71.1535 134.037 70.8867 133.957 70.5537 133.957C70.2243 133.957 69.9468 134.037 69.7212 134.198C69.4992 134.359 69.3846 134.583 69.3774 134.87H68.502C68.5091 134.544 68.6022 134.256 68.7812 134.005C68.9603 133.754 69.2038 133.559 69.5117 133.419C69.8232 133.276 70.1724 133.205 70.5591 133.205C70.953 133.205 71.2967 133.274 71.5903 133.414C71.8875 133.554 72.1185 133.742 72.2832 133.978C72.4515 134.214 72.5356 134.476 72.5356 134.762C72.5356 135.077 72.439 135.349 72.2456 135.579C72.0522 135.808 71.7855 135.964 71.4453 136.046V136.057C71.8499 136.114 72.1668 136.27 72.396 136.524C72.6287 136.775 72.7451 137.077 72.7451 137.432C72.7451 137.747 72.6502 138.03 72.4604 138.28C72.2743 138.531 72.0164 138.728 71.687 138.871C71.3576 139.014 70.9834 139.086 70.5645 139.086ZM73.2339 140.719V138.141H73.728C73.8927 137.969 74.0288 137.784 74.1362 137.587C74.2437 137.39 74.3314 137.133 74.3994 136.814C74.471 136.495 74.5301 136.071 74.5767 135.541L74.7808 133.328H78.5942V138.141H79.5073V140.719H78.5942V139H74.147V140.719H73.2339ZM74.7808 138.141H77.6812V134.188H75.6133L75.479 135.541C75.4217 136.125 75.3429 136.635 75.2427 137.072C75.146 137.509 74.992 137.865 74.7808 138.141ZM82.0371 139.086C81.4749 139.086 81.0041 138.941 80.6245 138.651C80.2485 138.361 80.0605 137.933 80.0605 137.367C80.0605 137.041 80.1232 136.776 80.2485 136.572C80.3774 136.368 80.5475 136.209 80.7588 136.094C80.9736 135.976 81.2153 135.887 81.4839 135.826C81.756 135.765 82.0335 135.716 82.3164 135.681C82.6781 135.631 82.9627 135.593 83.1704 135.568C83.3781 135.543 83.5249 135.502 83.6108 135.444C83.7004 135.387 83.7451 135.287 83.7451 135.144V135.09C83.7451 134.782 83.6341 134.528 83.4121 134.327C83.1937 134.127 82.8857 134.026 82.4883 134.026C82.0944 134.026 81.7703 134.123 81.5161 134.316C81.2655 134.506 81.1294 134.743 81.1079 135.025H80.1787C80.1966 134.678 80.304 134.37 80.501 134.102C80.6979 133.829 80.9665 133.615 81.3066 133.457C81.6468 133.299 82.0407 133.221 82.4883 133.221C83.1507 133.221 83.6753 133.393 84.062 133.736C84.4523 134.076 84.6475 134.528 84.6475 135.09V139H83.7451V138.194H83.7236C83.6556 138.33 83.5553 138.468 83.4229 138.608C83.2904 138.744 83.1113 138.859 82.8857 138.952C82.6637 139.041 82.3809 139.086 82.0371 139.086ZM82.166 138.27C82.5384 138.27 82.841 138.203 83.0737 138.071C83.3065 137.935 83.4766 137.759 83.584 137.544C83.6914 137.33 83.7451 137.099 83.7451 136.852V136.143C83.6771 136.207 83.4963 136.266 83.2026 136.32C82.909 136.37 82.5993 136.418 82.2734 136.465C82.055 136.493 81.8473 136.544 81.6504 136.615C81.457 136.683 81.2995 136.782 81.1777 136.911C81.056 137.036 80.9951 137.206 80.9951 137.421C80.9951 137.686 81.099 137.894 81.3066 138.044C81.5179 138.194 81.8044 138.27 82.166 138.27ZM87.3867 139V134.155H85.4048V133.328H90.271V134.155H88.2998V139H87.3867ZM91.9414 135.262H93.585C94.0039 135.262 94.3727 135.34 94.6914 135.498C95.0101 135.656 95.259 135.874 95.438 136.153C95.6206 136.429 95.7119 136.748 95.7119 137.109C95.7119 137.478 95.6206 137.806 95.438 138.092C95.259 138.375 95.0101 138.597 94.6914 138.758C94.3727 138.919 94.0039 139 93.585 139H91.0283V133.328H91.9414V135.262ZM91.9414 136.121V138.141H93.5527C93.9359 138.141 94.2384 138.048 94.4604 137.861C94.686 137.675 94.7988 137.424 94.7988 137.109C94.7988 136.805 94.686 136.565 94.4604 136.39C94.2384 136.211 93.9359 136.121 93.5527 136.121H91.9414ZM101.255 139.086C100.693 139.086 100.222 138.941 99.8423 138.651C99.4663 138.361 99.2783 137.933 99.2783 137.367C99.2783 137.041 99.341 136.776 99.4663 136.572C99.5952 136.368 99.7653 136.209 99.9766 136.094C100.191 135.976 100.433 135.887 100.702 135.826C100.974 135.765 101.251 135.716 101.534 135.681C101.896 135.631 102.181 135.593 102.388 135.568C102.596 135.543 102.743 135.502 102.829 135.444C102.918 135.387 102.963 135.287 102.963 135.144V135.09C102.963 134.782 102.852 134.528 102.63 134.327C102.411 134.127 102.104 134.026 101.706 134.026C101.312 134.026 100.988 134.123 100.734 134.316C100.483 134.506 100.347 134.743 100.326 135.025H99.3965C99.4144 134.678 99.5218 134.37 99.7188 134.102C99.9157 133.829 100.184 133.615 100.524 133.457C100.865 133.299 101.258 133.221 101.706 133.221C102.368 133.221 102.893 133.393 103.28 133.736C103.67 134.076 103.865 134.528 103.865 135.09V139H102.963V138.194H102.941C102.873 138.33 102.773 138.468 102.641 138.608C102.508 138.744 102.329 138.859 102.104 138.952C101.882 139.041 101.599 139.086 101.255 139.086ZM101.384 138.27C101.756 138.27 102.059 138.203 102.292 138.071C102.524 137.935 102.694 137.759 102.802 137.544C102.909 137.33 102.963 137.099 102.963 136.852V136.143C102.895 136.207 102.714 136.266 102.42 136.32C102.127 136.37 101.817 136.418 101.491 136.465C101.273 136.493 101.065 136.544 100.868 136.615C100.675 136.683 100.517 136.782 100.396 136.911C100.274 137.036 100.213 137.206 100.213 137.421C100.213 137.686 100.317 137.894 100.524 138.044C100.736 138.194 101.022 138.27 101.384 138.27ZM105.219 139V133.328H106.132V135.777H106.744L108.919 133.328H110.085L107.668 136.067L110.117 139H108.957L106.98 136.637H106.132V139H105.219ZM110.772 139V133.328H111.686V135.777H112.298L114.473 133.328H115.639L113.222 136.067L115.671 139H114.511L112.534 136.637H111.686V139H110.772ZM118.056 139.086C117.493 139.086 117.023 138.941 116.643 138.651C116.267 138.361 116.079 137.933 116.079 137.367C116.079 137.041 116.142 136.776 116.267 136.572C116.396 136.368 116.566 136.209 116.777 136.094C116.992 135.976 117.234 135.887 117.502 135.826C117.775 135.765 118.052 135.716 118.335 135.681C118.697 135.631 118.981 135.593 119.189 135.568C119.397 135.543 119.543 135.502 119.629 135.444C119.719 135.387 119.764 135.287 119.764 135.144V135.09C119.764 134.782 119.653 134.528 119.431 134.327C119.212 134.127 118.904 134.026 118.507 134.026C118.113 134.026 117.789 134.123 117.535 134.316C117.284 134.506 117.148 134.743 117.126 135.025H116.197C116.215 134.678 116.323 134.37 116.52 134.102C116.716 133.829 116.985 133.615 117.325 133.457C117.665 133.299 118.059 133.221 118.507 133.221C119.169 133.221 119.694 133.393 120.081 133.736C120.471 134.076 120.666 134.528 120.666 135.09V139H119.764V138.194H119.742C119.674 138.33 119.574 138.468 119.441 138.608C119.309 138.744 119.13 138.859 118.904 138.952C118.682 139.041 118.399 139.086 118.056 139.086ZM118.185 138.27C118.557 138.27 118.86 138.203 119.092 138.071C119.325 137.935 119.495 137.759 119.603 137.544C119.71 137.33 119.764 137.099 119.764 136.852V136.143C119.696 136.207 119.515 136.266 119.221 136.32C118.928 136.37 118.618 136.418 118.292 136.465C118.074 136.493 117.866 136.544 117.669 136.615C117.476 136.683 117.318 136.782 117.196 136.911C117.075 137.036 117.014 137.206 117.014 137.421C117.014 137.686 117.118 137.894 117.325 138.044C117.536 138.194 117.823 138.27 118.185 138.27ZM121.794 141.245V140.439H122.353C122.689 140.439 122.945 140.212 123.121 139.757L123.432 138.952L121.235 133.328H122.224L123.448 136.594C123.527 136.805 123.604 137.018 123.679 137.233C123.758 137.444 123.833 137.655 123.905 137.867C123.98 137.655 124.055 137.444 124.13 137.233C124.209 137.018 124.288 136.805 124.367 136.594L125.57 133.328H126.542L123.926 140.053C123.779 140.432 123.57 140.726 123.298 140.934C123.026 141.141 122.711 141.245 122.353 141.245H121.794ZM128.293 133.328V135.734H131.215V133.328H132.128V139H131.215V136.594H128.293V139H127.38V133.328H128.293ZM134.867 139V134.155H132.885V133.328H137.751V134.155H135.78V139H134.867Z" fill="black"/>
<circle cx="61" cy="50" r="16" fill="white"/>
<rect x="83" y="34" width="45" height="7" fill="white"/>
<rect x="83" y="46" width="32" height="3" fill="white"/>
<rect x="83" y="52" width="32" height="3" fill="white"/>
<rect x="45" y="76" width="103" height="3" fill="white"/>
<rect x="45" y="82" width="103" height="3" fill="white"/>
<rect x="45" y="88" width="103" height="3" fill="white"/>
</svg>
