<svg width="193" height="186" viewBox="0 0 193 186" fill="none" xmlns="http://www.w3.org/2000/svg">
<rect x="0.5" y="0.5" width="192" height="185" rx="4.5" fill="white"/>
<rect x="0.5" y="0.5" width="192" height="185" rx="4.5" stroke="black"/>
<path d="M42.4621 105V80.2129H58.0497V82.8746H45.4565V90.9761H57.0516V93.6378H45.4565V105H42.4621ZM65.8518 105.266C64.1106 105.266 62.6522 104.817 61.4766 103.919C60.3122 103.02 59.7299 101.695 59.7299 99.9428C59.7299 98.9335 59.924 98.1128 60.3122 97.4807C60.7114 96.8485 61.2382 96.355 61.8925 96.0001C62.558 95.6341 63.3066 95.3569 64.1384 95.1683C64.9812 94.9798 65.8407 94.8301 66.7169 94.7192C67.837 94.5639 68.7187 94.4474 69.362 94.3698C70.0052 94.2922 70.4599 94.1646 70.7261 93.9872C71.0033 93.8097 71.142 93.4992 71.142 93.0556V92.8892C71.142 91.9355 70.7982 91.148 70.1106 90.527C69.434 89.9059 68.4803 89.5954 67.2492 89.5954C66.0293 89.5954 65.0256 89.8948 64.2382 90.4937C63.4618 91.0815 63.0404 91.8135 62.9739 92.6896H60.0959C60.1513 91.6138 60.4841 90.6601 61.094 89.8283C61.704 88.9854 62.5358 88.32 63.5894 87.832C64.643 87.344 65.8629 87.1 67.2492 87.1C69.301 87.1 70.9257 87.6324 72.1235 88.697C73.3323 89.7506 73.9368 91.148 73.9368 92.8892V105H71.142V102.505H71.0754C70.8647 102.926 70.5542 103.353 70.1438 103.786C69.7335 104.207 69.179 104.562 68.4803 104.85C67.7927 105.128 66.9165 105.266 65.8518 105.266ZM66.2511 102.738C67.4045 102.738 68.3416 102.532 69.0625 102.122C69.7834 101.701 70.3102 101.157 70.6429 100.492C70.9756 99.8263 71.142 99.111 71.142 98.3457V96.1498C70.9313 96.3495 70.3712 96.5324 69.4618 96.6988C68.5524 96.8541 67.593 97.0038 66.5838 97.148C65.9073 97.2367 65.264 97.392 64.6541 97.6138C64.0552 97.8245 63.5672 98.1295 63.1901 98.5287C62.813 98.9169 62.6245 99.4437 62.6245 100.109C62.6245 100.93 62.9461 101.573 63.5894 102.039C64.2437 102.505 65.131 102.738 66.2511 102.738ZM85.3821 105.399C83.7629 105.399 82.3378 105.011 81.1067 104.235C79.8868 103.447 78.933 102.366 78.2454 100.991C77.5689 99.6156 77.2306 98.0352 77.2306 96.2496C77.2306 94.453 77.5689 92.8615 78.2454 91.4752C78.933 90.0889 79.8868 89.002 81.1067 88.2146C82.3378 87.4272 83.7629 87.0335 85.3821 87.0335C86.713 87.0335 87.9052 87.2996 88.9588 87.832C90.0124 88.3532 90.8719 89.0741 91.5373 89.9946C92.2138 90.9151 92.6297 91.9687 92.785 93.1554H89.9236C89.7129 92.124 89.2249 91.2756 88.4597 90.6101C87.7056 89.9336 86.6797 89.5954 85.3821 89.5954C83.7296 89.5954 82.432 90.1998 81.4894 91.4087C80.5578 92.6175 80.092 94.2312 80.092 96.2496C80.092 98.2459 80.5578 99.8429 81.4894 101.041C82.421 102.238 83.7185 102.837 85.3821 102.837C86.7019 102.837 87.7111 102.516 88.4098 101.872C89.1085 101.218 89.5965 100.353 89.8737 99.2773H92.785C92.6297 100.431 92.2138 101.473 91.5373 102.405C90.8719 103.325 90.0068 104.057 88.9421 104.601C87.8885 105.133 86.7019 105.399 85.3821 105.399ZM103.216 105.399C101.497 105.399 100.027 105.006 98.8071 104.218C97.5982 103.431 96.6722 102.349 96.0289 100.974C95.3857 99.5879 95.0641 98.013 95.0641 96.2496C95.0641 94.4641 95.4023 92.8781 96.0788 91.4918C96.7554 90.1055 97.6925 89.0187 98.8903 88.2312C100.088 87.4327 101.463 87.0335 103.016 87.0335C104.646 87.0335 106.06 87.4216 107.258 88.198C108.456 88.9743 109.376 90.0556 110.02 91.4419C110.674 92.8282 111.001 94.4308 111.001 96.2496V97.0315H97.8589C97.9254 98.7505 98.4189 100.148 99.3394 101.224C100.26 102.299 101.552 102.837 103.216 102.837C104.469 102.837 105.489 102.549 106.277 101.972C107.075 101.396 107.607 100.653 107.874 99.7431H110.702C110.48 100.863 110.02 101.85 109.321 102.704C108.622 103.547 107.746 104.207 106.692 104.684C105.65 105.161 104.491 105.399 103.216 105.399ZM97.8921 94.6027H108.173C108.018 93.0611 107.48 91.8356 106.559 90.9262C105.639 90.0168 104.458 89.5621 103.016 89.5621C101.574 89.5621 100.399 90.0168 99.4892 90.9262C98.5797 91.8356 98.0474 93.0611 97.8921 94.6027ZM126.106 80.2129V105H123.112V80.2129H126.106ZM138.683 105H131.03V80.2129H139.016C141.422 80.2129 143.485 80.7064 145.204 81.6934C146.934 82.6805 148.259 84.1001 149.18 85.9522C150.1 87.7932 150.561 89.9946 150.561 92.5565C150.561 95.1406 150.095 97.3642 149.163 99.2274C148.232 101.08 146.879 102.505 145.104 103.503C143.341 104.501 141.2 105 138.683 105ZM134.025 102.338H138.483C141.566 102.338 143.851 101.468 145.337 99.7265C146.823 97.9742 147.566 95.5842 147.566 92.5565C147.566 89.5621 146.834 87.1998 145.37 85.4697C143.917 83.7396 141.733 82.8746 138.816 82.8746H134.025V102.338Z" fill="black"/>
</svg>
