<svg width="193" height="186" viewBox="0 0 193 186" fill="none" xmlns="http://www.w3.org/2000/svg">
<rect x="0.5" y="0.5" width="192" height="185" rx="4.5" fill="white"/>
<rect x="0.5" y="0.5" width="192" height="185" rx="4.5" stroke="black"/>
<rect x="16.5" y="19.5" width="91" height="91" stroke="black"/>
<rect x="151.5" y="122.5" width="24" height="43" stroke="black"/>
<path d="M162.699 109.399C162.919 109.565 163.233 109.521 163.399 109.301L166.111 105.71C166.277 105.49 166.233 105.176 166.013 105.01C165.793 104.843 165.479 104.887 165.313 105.107L162.902 108.299L159.71 105.889C159.49 105.723 159.176 105.766 159.01 105.987C158.843 106.207 158.887 106.521 159.108 106.687L162.699 109.399ZM112.548 48.9975C119.325 48.3443 130.013 50.5234 139.906 59.2743C149.793 68.0194 158.917 83.3578 162.505 109.069L163.495 108.931C159.883 83.0418 150.674 67.4635 140.569 58.5253C130.47 49.5928 119.508 47.3219 112.452 48.0021L112.548 48.9975Z" fill="black"/>
<path d="M51.3246 115.12C51.1146 114.94 50.799 114.965 50.6197 115.175L47.698 118.598C47.5187 118.808 47.5437 119.124 47.7537 119.303C47.9637 119.482 48.2793 119.457 48.4586 119.247L51.0557 116.205L54.0979 118.802C54.3079 118.981 54.6235 118.956 54.8028 118.746C54.9821 118.536 54.9572 118.221 54.7472 118.041L51.3246 115.12ZM50.5016 115.539C51.263 125.184 56.8919 138.294 71.2678 146.361C85.641 154.426 108.669 157.401 144.141 146.98L143.859 146.02C108.531 156.399 85.809 153.374 71.7572 145.489C57.7081 137.606 52.237 124.816 51.4984 115.461L50.5016 115.539Z" fill="black"/>
</svg>
